<svg id="Layer_1" enable-background="new 0 0 512 512" height="512" viewBox="0 0 512 512" width="512" xmlns="http://www.w3.org/2000/svg"><g><path d="m54.859 226.088v31.856c0 6.169 7.363 9.785 12.237 5.815l45.691-37.222h176.007c34.385 0 62.36-27.975 62.36-62.36v-101.806c0-34.385-27.975-62.359-62.36-62.359h-174.128c-4.142 0-7.5 3.358-7.5 7.5s3.358 7.5 7.5 7.5h174.129c26.114 0 47.36 21.245 47.36 47.359v101.807c0 26.114-21.246 47.36-47.36 47.36h-178.676c-1.726 0-3.399.595-4.737 1.685l-35.523 28.938v-23.124c0-4.142-3.358-7.5-7.5-7.5-26.114 0-47.359-21.246-47.359-47.36v-101.806c0-26.114 21.245-47.359 47.359-47.359h13.045c4.142 0 7.5-3.358 7.5-7.5s-3.358-7.5-7.5-7.5h-13.045c-34.385-.001-62.359 27.973-62.359 62.359v101.807c0 31.847 23.997 58.196 54.859 61.91z"/><path d="m193.856 73.734c9.931-.344 9.923-14.659 0-15h-37.748c-4.142 0-7.5 3.358-7.5 7.5v89.585c0 4.142 3.358 7.5 7.5 7.5h37.748c9.931-.344 9.923-14.659 0-15h-30.248v-29.792h27.464c9.931-.344 9.923-14.659 0-15h-27.464v-29.793z"/><path d="m260.48 148.732c-10.041 0-19.742-4.089-25.949-10.938-2.781-3.069-7.524-3.303-10.594-.521-3.069 2.782-3.303 7.524-.521 10.594 19.525 22.274 64.046 22.522 71.366-9.91 3.02-16.916-10.343-28.269-23.856-33.253-11.729-4.327-22.602-9.052-25.238-10.211-3.093-2.238-4.598-5.834-4.04-9.725.693-4.826 4.378-8.693 9.857-10.344 14.818-4.464 28.152 6.26 28.391 6.456 3.17 2.641 7.884 2.226 10.542-.937 2.665-3.17 2.255-7.901-.916-10.567-.789-.664-19.589-16.167-42.344-9.314-11.049 3.329-18.857 11.979-20.378 22.575-1.303 9.079 3.211 21.292 12.172 25.288.519.231 12.857 5.724 26.762 10.853 10.276 3.791 15.481 9.82 14.281 16.543-1.16 6.501-8.401 13.411-19.535 13.411z"/><path d="m92.217 163.319c4.14.011 7.509-3.339 7.519-7.482l.107-43.967 27.433-42.141c2.26-3.472 1.277-8.118-2.194-10.377-3.472-2.259-8.117-1.278-10.377 2.194l-22.366 34.358-22.59-34.596c-5.718-8.127-17.7-.294-12.56 8.201l27.653 42.351-.107 43.942c-.01 4.141 3.34 7.507 7.482 7.517z"/><path d="m449.641 246.578h-226.436c-34.385 0-62.36 27.975-62.36 62.36v101.807c0 34.385 27.975 62.359 62.36 62.359h176.007l45.691 37.223c4.873 3.97 12.237.354 12.237-5.815v-31.856c30.863-3.716 54.86-30.064 54.86-61.912v-18.404c0-4.142-3.358-7.5-7.5-7.5s-7.5 3.358-7.5 7.5v18.404c0 26.114-21.245 47.359-47.359 47.359-4.142 0-7.5 3.358-7.5 7.5v23.124l-35.523-28.939c-1.338-1.09-3.011-1.685-4.737-1.685h-178.676c-26.114 0-47.36-21.245-47.36-47.359v-101.807c0-26.114 21.246-47.36 47.36-47.36h226.436c26.114 0 47.359 21.246 47.359 47.36v43.416c0 4.142 3.358 7.5 7.5 7.5s7.5-3.358 7.5-7.5v-43.416c0-34.385-27.974-62.359-62.359-62.359z"/><path d="m239.397 306.877c-3.134.977-5.268 3.878-5.268 7.16v90.242c.344 9.931 14.659 9.923 15 0v-66.183l47.346 68.559c2.354 3.401 6.223 4.867 9.854 3.733 3.739-1.168 6.155-4.762 6.155-9.229l-.845-87.364c-.037-4.143-3.438-7.47-7.572-7.427-4.142.04-7.467 3.43-7.427 7.572l.653 67.502-49.492-71.667c-1.865-2.701-5.27-3.874-8.404-2.898z"/><path d="m333.305 359.074c0 29.062 23.644 52.706 52.706 52.706 69.921-2.895 69.901-102.527 0-105.411-29.063-.001-52.706 23.643-52.706 52.705zm90.411 0c0 20.791-16.915 37.706-37.706 37.706-50.022-2.071-50.007-73.348 0-75.411 20.791-.001 37.706 16.914 37.706 37.705z"/><path d="m496.075 63.019h8.425c9.931-.344 9.923-14.659 0-15h-8.425c-9.931.344-9.924 14.659 0 15z"/><path d="m473.046 38.866c4.142 0 7.5-3.358 7.5-7.5v-8.425c-.344-9.931-14.659-9.923-15 0v8.425c0 4.142 3.358 7.5 7.5 7.5z"/><path d="m440.468 61.895h8.425c9.931-.344 9.923-14.659 0-15h-8.425c-9.93.345-9.923 14.66 0 15z"/><path d="m471.922 94.473c4.142 0 7.5-3.358 7.5-7.5v-8.425c-.344-9.931-14.659-9.923-15 0v8.425c0 4.142 3.358 7.5 7.5 7.5z"/><path d="m450.291 149.258h-8.425c-9.931.344-9.923 14.659 0 15h8.425c9.931-.344 9.923-14.659 0-15z"/><path d="m418.837 140.105c4.142 0 7.5-3.358 7.5-7.5v-8.425c-.344-9.931-14.659-9.923-15 0v8.425c0 4.143 3.358 7.5 7.5 7.5z"/><path d="m386.259 163.134h8.425c9.931-.344 9.923-14.659 0-15h-8.425c-9.93.344-9.923 14.659 0 15z"/><path d="m417.713 195.712c4.142 0 7.5-3.358 7.5-7.5v-8.425c-.344-9.931-14.659-9.923-15 0v8.425c0 4.142 3.358 7.5 7.5 7.5z"/><path d="m125.741 335.382h-8.425c-9.931.344-9.923 14.659 0 15h8.425c9.93-.344 9.923-14.659 0-15z"/><path d="m94.287 302.804c-4.142 0-7.5 3.358-7.5 7.5v8.425c.344 9.931 14.659 9.923 15 0v-8.425c0-4.142-3.358-7.5-7.5-7.5z"/><path d="m61.709 349.259h8.425c9.931-.344 9.923-14.659 0-15h-8.425c-9.931.344-9.923 14.659 0 15z"/><path d="m93.163 358.411c-4.142 0-7.5 3.358-7.5 7.5v8.425c.344 9.931 14.659 9.923 15 0v-8.425c0-4.142-3.358-7.5-7.5-7.5z"/><path d="m71.532 436.621h-8.425c-9.931.344-9.923 14.659 0 15h8.425c9.93-.344 9.923-14.659 0-15z"/><path d="m40.078 404.043c-4.142 0-7.5 3.358-7.5 7.5v8.425c.344 9.931 14.659 9.923 15 0v-8.425c0-4.142-3.358-7.5-7.5-7.5z"/><path d="m15.925 435.498h-8.425c-9.931.344-9.923 14.659 0 15h8.425c9.931-.345 9.924-14.66 0-15z"/><path d="m38.954 459.65c-4.142 0-7.5 3.358-7.5 7.5v8.425c.344 9.931 14.659 9.923 15 0v-8.425c0-4.142-3.358-7.5-7.5-7.5z"/></g></svg>