<svg id="Capa_1" enable-background="new 0 0 479.634 479.634" height="512" viewBox="0 0 479.634 479.634" width="512" xmlns="http://www.w3.org/2000/svg"><g><g><path d="m440.157 64.087c-55.957-56.648-150.973-51.306-200.35 11.08-46.48-58.07-131.23-67.46-189.29-20.98s-67.46 131.22-20.98 189.29c3.08 3.85 6.37 7.52 9.86 11.01l200.41 200.5 200.41-200.41c52.58-52.62 52.55-137.9-.06-190.49zm-277.86 168.85h-21.95v21.95h-30v-21.95h-21.95v-30h21.95v-21.96h30v21.96h21.95zm62.15 70.71h-30v-134h-19.83v-30h49.83zm78.06 4c-49.526-.198-71.839-61.889-34.73-93.73-24.068-28.75-3.108-73.745 34.731-73.58 37.836-.166 58.8 44.837 34.729 73.58 37.123 31.857 14.776 93.544-34.73 93.73zm0-76.62c-12.85 0-23.31 10.46-23.31 23.31 1.285 30.923 45.34 30.914 46.62 0 0-12.85-10.46-23.31-23.31-23.31zm0-30.69c8.27 0 15-6.73 15-15-.825-19.899-29.178-19.893-30 0 0 8.27 6.73 15 15 15z"/></g></g></svg>